<svg viewBox="0 0 384 367.18" xmlns="http://www.w3.org/2000/svg"><path d="m383.23 307.05a36.7 36.7 0 0 0 -34.54-29.11c-2.68-.14-5.38 0-8.23 0v-90.53c0-13.8-7.15-20.89-21.07-20.9h-95v-139.32a6 6 0 0 1 1.2.64c13.84 13.37 27.8 26.62 41.37 40.27 2.2 2.21 3.58 6.13 3.73 9.33.46 10.23.17 20.49.17 30.74v36.37c0 4.75 2.86 7.52 6.86 6.67 3.84-.82 4.5-3.74 4.49-7.14 0-21.75-.12-43.5 0-65.25a26.8 26.8 0 0 0 -8.83-20.62q-24.92-23.82-49.58-47.95c-2.71-2.64-5.37-3.47-9.09-2.2-23.34 8-46.73 15.83-70.12 23.7-7.29 2.45-14.6 4.85-22.45 7.46 0-7.27 0-14 0-20.68-.09-10.53-7.98-18.62-18.04-18.53-10.57.1-17.83 7.52-17.9 18.41 0 10-.08 20 0 30 0 2.27-.72 3.27-2.84 3.94-6.53 2.07-13 4.38-19.49 6.53-13.04 4.33-18.79 12.2-18.79 25.86v192.92c-1 .17-1.53.28-2 .32-16.4 1.39-28.85 9.27-36.93 23.47-2.85 4.99-4.15 10.85-6.15 16.32v39c3.77 8.23 10.43 10.43 19.1 10.41q173.55-.23 347.09 0c8.6 0 14.78-2.78 17.81-11.14v-46.5c-.26-.84-.58-1.65-.77-2.49zm-338.39 48.46h-7.34c-7.25 0-14.5-.07-21.75 0-3.12 0-4.61-1.07-4.55-4.36.12-6.23 0-12.46 0-19.06h33.6zm.07-35.09h-32.81c-1-14.81 16.07-31.12 32.81-31.05zm52.68-303.65c.07-3.32 3-5.28 6.56-5.22s6.24 2.22 6.39 5.93c.24 6.21.12 12.44.14 18.67 0 7 0 7.05-6.79 9.28-2 .65-4 1.21-6.37 1.93 0-10.49-.13-20.54.07-30.59zm21.57 338.52h-21.69v-14.29c0-8.62-.1-17.24.1-25.86 0-1.39 1.14-3.63 2.24-4 6.24-2.08 12.62-3.7 19.35-5.59zm33.31-.08h-21.65v-11.85c0-12.61.09-25.22-.07-37.83 0-2.69.92-3.68 3.35-4.28 6-1.49 11.94-3.21 18.37-5zm-66.18-175.32a5.17 5.17 0 0 0 5.47 4.63 13.76 13.76 0 0 0 4.33-1q56.17-18.82 112.33-37.7c1.17-.39 2.35-.75 4.12-1.3v18.48c0 9.89 0 9.87-9.43 13q-55.63 18.71-111.26 37.44a11.74 11.74 0 0 0 -3.69 1.7 5.22 5.22 0 0 0 -1.37 6.77c1.43 2.93 4 3.69 7 2.77 6.53-2.07 13-4.33 19.5-6.5q47.82-16 95.66-32.1c1-.35 2.12-.61 3.59-1 0 9.12.09 18-.14 26.8 0 .86-1.86 2-3.06 2.45q-29.91 10.2-59.86 20.22c-4.13 1.39-8.28 2.74-12.39 4.19s-5.65 4.11-4.6 7.29c1.13 3.43 4.17 4.79 8.17 3.45q33.84-11.29 67.68-22.67l3.89-1.32v129.8h-48v-4.09c0-17.37-.32-34.75.13-52.11.22-8.68-7-16.46-17.47-13.25-16.31 5-32.85 9.28-49.28 13.92-7.84 2.21-11.34 6.81-11.37 15v40.42h-29.77v-4q0-133.1 0-266.21c0-8.67 2.5-12.45 10.12-15q71-23.91 142-47.75c1-.35 2.12-.6 3.89-1.1 0 9.94.08 19.29-.13 28.64 0 .9-1.74 2.18-2.92 2.57q-37.64 12.82-75.43 25.45c-14.17 4.76-28.38 9.43-42.48 14.38a9.36 9.36 0 0 0 -5 4.39c-.52 1.33.24 4.45 1.48 5.25a8.52 8.52 0 0 0 6.41 1.2c9.19-2.75 18.23-6 27.32-9l86.8-29.15c1.16-.39 2.35-.73 4-1.23 0 9.14.09 18-.13 26.8 0 .88-1.83 2.08-3 2.49q-29.9 10.2-59.85 20.22-28.89 9.72-57.77 19.41c-2.75.92-5.16 2-5.49 5.33-.45 4.61 3.39 7.35 8.33 5.73 9.82-3.21 19.6-6.58 29.4-9.87l84.67-28.43c1.14-.39 2.31-.72 3.87-1.21 0 9.11.1 17.84-.14 26.57 0 1-1.88 2.33-3.14 2.76q-33.11 11.22-66.28 22.32-25.88 8.7-51.75 17.36c-3.93 1.33-5.52 3.5-4.96 6.79zm220.41 175.3h-82.4v-23h82.4zm.12-38.74v4h-82.57v-142.16c1.31-.08 2.51-.2 3.71-.2q46.1 0 92.2 0c6.77 0 9 2.21 9 8.94q0 45.36 0 90.7c0 1.79-.1 3.1-2.11 4.19-13.63 7.39-20.21 19.08-20.23 34.53zm65.86 36.16c-.06 2.67-2.19 2.91-4.35 2.91q-16.83 0-33.67 0h-16.23v-23.43h54.3c0 6.91.09 13.71-.05 20.52zm-.07-32.2h-54.21c-1-11.28 1.84-20.74 11.54-26.88s20.23-6.37 30.19-.63c10.36 5.97 13.42 15.81 12.48 27.51z"/><path d="m86.58 262c1 2.63 3.32 4.16 6 3.36 7.73-2.32 15.4-4.87 22.95-7.72 2.51-.94 3.46-3.55 2.59-6.31s-2.74-4.06-6.84-4.06c-6.85 2.43-14.88 5-22.7 8.17-2.64 1.04-2.94 4.02-2 6.56z"/><path d="m302.93 234.55c-8.87 0-17.74 0-26.61 0-9.13 0-18.25 0-27.37 0-5.84 0-9.61 3.69-9.81 9.53-.15 4.62-.15 9.25 0 13.87.21 5 3.35 8.36 8.34 9a56.19 56.19 0 0 0 7.11.24c15.74 0 31.49.05 47.24 0 7.81 0 11.44-3.75 11.49-11.52 0-3.62.09-7.25 0-10.87-.17-6.43-4.03-10.22-10.39-10.25zm-1.3 20.93h-50.94v-9.48h50.94z"/><path d="m252.32 224.44h27.37 21.74c8.33-.06 11.9-3.64 11.94-11.87 0-3.37.05-6.75 0-10.12-.14-6.87-3.92-10.63-10.74-10.65-8.88 0-17.75 0-26.62 0-9.12 0-18.25-.06-27.37 0a9.13 9.13 0 0 0 -9.46 9.08c-.18 3.49-.09 7-.09 10.5-.01 10.1 2.98 13.05 13.23 13.06zm-1.63-21.25h50.93v9.51h-50.93z"/><path d="m268.1 278c-6.85-.31-13.73-.34-20.58 0a8.54 8.54 0 0 0 -8.3 8.55c-.22 5-.23 10 0 15 .24 5.15 4.12 8.63 9.36 8.74 3 .07 6 0 9 0s6.25.06 9.37 0c4.76-.12 8.69-3.14 9.06-7.78a114.88 114.88 0 0 0 0-16.8 8.08 8.08 0 0 0 -7.91-7.71zm-3.48 20.9h-13.93v-9.49h13.93z"/></svg>