<svg viewBox="0 0 360.04 324.04" xmlns="http://www.w3.org/2000/svg"><g fill="#090808"><path d="m84.52 75h153.56c6.41 0 8.27 1.81 8.28 8.22q0 30.38 0 60.75c0 3.12-.35 6-3.68 7.51-4.25 1.89-8.47-1.05-8.56-6.18q-.18-9.56 0-19.12c.05-2.27-.31-3.21-3-3.21q-104.8.14-209.62 0c-2.71 0-3.24.83-3.24 3.36q.12 62.63 0 125.25c0 2.78.62 3.49 3.45 3.48q57.38-.17 114.75-.07c4.85 0 7.41 2 7.51 5.86a5.8 5.8 0 0 1 -5.27 6.15 31.48 31.48 0 0 1 -3.37.07h-120.33c-7.11 0-8.86-1.74-8.86-8.77q0-86.23 0-172.49c-.04-9.6-2.92-18.73-4.14-28.11-.43-3.08-1.11-6.13-1.7-9.18-1.07-5.52.7-8.26 6.31-9.27 17.54-3.13 35.09-6.15 52.64-9.25q35.13-6.2 70.27-12.42l79.12-13.86c6.26-1.1 12.51-2.21 18.75-3.41 6-1.13 8.57.74 9.59 6.8q2.66 15.84 5.49 31.66c.95 5.35-.72 8-6.13 9-15.93 2.86-31.88 5.63-47.83 8.43l-70.29 12.35-33.74 5.94zm78 36c-2-1.83-3.09-2.82-4.14-3.89-3-3.11-3.34-6.66-.85-9.24 2.65-2.73 6.19-2.49 9.51.76 3.58 3.5 7.06 7.08 10.63 10.58.77.75 1.34 1.81 2.69 1.8h15.91c-8-8-15.39-15.22-22.64-22.61-1.35-1.4-2.77-1.4-4.39-1.4q-21.93 0-43.87 0c-1 0-2.16-.33-3.55.6l22.52 22.26a3 3 0 0 0 2.25 1.11c4.95.03 9.9.03 15.94.03zm-14.26-84.25c7.91 5.55 15.18 10.38 22.13 15.62 3.51 2.65 6.77 3.65 11.27 2.75 14.35-2.87 28.81-5.22 44-7.92-9.35-6.54-18.09-12.67-26.85-18.76a2.55 2.55 0 0 0 -1.74-.4c-4.86.84-9.7 1.76-15.38 2.81 2.66 1.85 4.67 3.22 6.64 4.64 3.82 2.75 4.77 6.13 2.63 9.24s-5.63 3.5-9.51.82c-4.93-3.41-9.84-6.83-14.71-10.31-1.16-.83-2.24-1.53-3.75-1.25-4.56.88-9.17 1.72-14.73 2.76zm-60.7 60.25 22.62 22.62a3.35 3.35 0 0 0 2.49 1.37c4.91-.05 9.82 0 15.87 0-8.3-8.2-15.8-15.61-23.28-23a3.08 3.08 0 0 0 -2.33-.95c-4.82-.04-9.64-.04-15.37-.04zm27.09-54.45c9.3 6.49 17.93 12.53 26.59 18.54a2.65 2.65 0 0 0 1.67.61c5-.8 10-1.7 15.89-2.71-8.34-5.84-16-11-23.36-16.44-2.93-2.16-5.6-3.12-9.25-2-3.42 1-7.07 1.27-11.54 2.02zm-100.11 17.76c9.14 6.42 17.57 12.35 26 18.26a3 3 0 0 0 2.34.91c5-.91 9.89-1.79 15.59-2.82l-26.47-18.66a2.55 2.55 0 0 0 -2.08-.53c-4.92.96-9.8 1.83-15.38 2.84zm66.94-11.71c9 6.33 17.61 12.34 26.19 18.32.49.35 1.15.84 1.65.76 5.07-.83 10.12-1.76 16-2.81-5.27-3.69-10.14-6.4-14.15-10-8.37-7.66-17.49-10.73-28.45-6.6-.22.03-.45.09-1.24.33zm-33.63 5.76 26.15 18.25c.7.49 1.3 1.22 2.3 1l15.59-2.92c-9.11-6.39-17.66-12.37-26.19-18.39a3.83 3.83 0 0 0 -3.17-.5c-4.66.89-9.32 1.65-14.68 2.56zm-27.93 43c7.86 7.84 15.34 15.31 22.85 22.76a2.68 2.68 0 0 0 1.56.87c5.14.06 10.28 0 16.1 0-5-5-9.27-9.32-13.67-13.57-3.56-3.46-6.34-8.49-10.84-10s-9.92-.36-14.92-.37c-.07 0-.18.05-1.08.26zm74.42 22.64a14.14 14.14 0 0 1 -2.61-1.65c-6.83-6.73-13.61-13.55-20.43-20.35a2.67 2.67 0 0 0 -1.53-.92c-5.14-.07-10.29 0-16.16 0 4.89 4.87 9.58 8.74 13.28 13.4 6.93 8.71 15.11 13.33 27.45 9.52zm95.59-22.21c7.44 7.36 14.95 14.79 22.48 22.2a2.71 2.71 0 0 0 1.53.91c5.15.06 10.3 0 16.26 0-4.93-4.87-9.66-8.71-13.34-13.36-6.92-8.7-15.11-13.32-26.93-9.72zm34-.71 9.83 9.35c1.39-9.53 1.39-9.53-8.35-9.43-.32 0-.69.07-1.41.11zm-8.92-72.18 12.44 8.63c-.64-3.34-1.28-5.86-1.56-8.41-.18-1.69-.83-2.06-2.35-1.75-2.46.54-4.99.94-8.48 1.56zm-196.21 88.7c-.85 8.54-1.59 7.77 6.37 7.06zm6.13-31.11c-1.89-1.34-3.27-2.36-4.7-3.31s-2.49-2.15-4.39-2.4c1.67 7.31 1.67 7.31 9.09 5.71z"/><path d="m178.05 204.89a38.22 38.22 0 0 1 10.77-.85c-5-14.92-2.31-25.55 8.05-32.29 10.19-6.64 21.18-4.84 32.34 5.3 7.42-20.27 27.81-25 41.77-18.21 16.7 8.09 21.26 25.49 11.59 44.86 19.38 2.62 27.09 11.21 29.77 33.38l37-13.82c.7-.26 1.39-.55 2.1-.78 4.94-1.59 8.51.89 8.57 6.06.06 5.63.05 11.25 0 16.87 0 4.1-2.37 6.58-6 6.57s-5.9-2.5-6-6.61c0-2.73 0-5.46 0-8.62-9.49 3.56-18.65 7-27.8 10.44-8.2 3.09-8.2 3.1-8.2 11.72v16.5c0 1.06-.34 2.24 1.17 2.8 11.5 4.26 23 8.55 34.82 13 0-7 0-13.57 0-20.17 0-4.46 2.18-7 5.93-7s6.05 2.48 6.06 6.89q0 14.07 0 28.12c0 5.86-3.6 8.32-9.21 6.25-12.36-4.56-24.68-9.21-37-13.82-.44-.16-.9-.29-1.6-.52-.23 4-.15 7.85-1.29 11.57a30.06 30.06 0 0 1 -28.8 21.47q-8.62 0-17.24 0c-4.39 0-6.91-2.32-6.84-6.12.06-3.62 2.55-5.84 6.71-5.87h16.49c10.92-.12 18.71-7.74 18.77-18.6q.15-29.43 0-58.86c-.06-10.68-7.81-18.47-18.46-18.49q-47.43-.14-94.86 0c-10.86 0-18.58 7.82-18.63 18.71q-.1 29.25 0 58.49c.05 11.05 7.83 18.72 19 18.75q26.25.09 52.49 0c2.62 0 4.6.9 5.84 3.24a5.68 5.68 0 0 1 -.25 6 5.88 5.88 0 0 1 -5.38 2.77c-18.62 0-37.24.18-55.86-.11-14.64-.23-27.7-13.82-27.8-28.61-.13-18.74 0-37.49 0-56.24v-4.06c-1.44-.53-2.17.6-3.07 1.1a54.14 54.14 0 0 1 -79.07-33.29c-8.33-30.65 12.53-62.39 44-67.11a53.59 53.59 0 0 1 34 5.82c4.46 2.36 5.84 5.59 4 9s-5.19 4.06-9.69 1.77c-25.47-12.94-54.34.22-61 27.84-6.07 25 13.77 50.62 39.5 51 33.14.49 53.61-32.71 38.32-62.1-.91-1.75-2-3.51-1.46-5.64a6.17 6.17 0 0 1 5.14-4.85c2.91-.46 5 1 6.45 3.53a53.75 53.75 0 0 1 7.19 29.35 63.21 63.21 0 0 1 -2.33 13.47zm80-36.89a18 18 0 1 0 17.95 18.32c.22-9.75-8-18.19-17.94-18.32zm-48.35 36a12.29 12.29 0 0 0 12.3-11.62c.29-6.41-5.36-12.31-11.84-12.38a12.28 12.28 0 0 0 -12.16 11.77c-.15 6.23 5.36 12.01 11.7 12.23z"/><path d="m219.26 252q15.75 0 31.49 0c5.22 0 7.25 2 7.26 7.19q0 16.86 0 33.73c0 5-2.08 7.06-7 7.07q-32.06 0-64.1 0c-4.72 0-6.86-2.13-6.87-6.82q0-17.25 0-34.49c0-4.5 2.16-6.66 6.63-6.68zm-.26 36c8.12 0 16.25-.07 24.36 0 2.12 0 2.73-.56 2.69-2.68q-.21-9.37 0-18.74c.05-2.13-.59-2.68-2.69-2.67q-24.36.12-48.73 0c-2.11 0-2.73.56-2.68 2.68q.21 9.36 0 18.74c-.05 2.13.58 2.7 2.69 2.67 8.13-.09 16.25 0 24.36 0z"/><path d="m108 188.92c0-7.63 0-15.25 0-22.88 0-2.7.64-4.93 3.13-6.29s4.75-.8 7 .7c11.5 7.7 23.06 15.31 34.53 23.05 4.65 3.14 4.74 7.86.15 11q-17.49 11.86-35.17 23.43c-4.63 3-9.53.2-9.59-5.36-.05-7.9-.05-15.78-.05-23.65zm31.05.1-18.88-12.56v25.15z"/><path d="m219.26 228h25.86c4.41 0 6.93 2.27 6.89 6.06s-2.58 5.92-7 5.93q-26 0-52.09 0c-4.41 0-6.92-2.27-6.88-6.07s2.57-5.91 7-5.92q13.1 0 26.22 0z"/><path d="m282 234a6 6 0 1 1 -5.77-6 5.88 5.88 0 0 1 5.77 6z"/><path d="m270 264.09a6 6 0 1 1 5.92 5.89 5.84 5.84 0 0 1 -5.92-5.89z"/><path d="m282 294a6 6 0 1 1 -5.8-6 5.88 5.88 0 0 1 5.8 6z"/><path d="m258 180a6 6 0 1 1 -6 5.84 5.86 5.86 0 0 1 6-5.84z"/></g></svg>