<svg viewBox="0 0 304.25 384.14" xmlns="http://www.w3.org/2000/svg"><path d="m249.86 343c-3.21-.08-5.52 2.33-5.75 6.06v.83 28.76a5.51 5.51 0 0 0 5.5 5.51h.34a5.51 5.51 0 0 0 5.51-5.51v-29.5c-.11-3.7-2.41-6.09-5.6-6.15z"/><path d="m54.25 343c-2.84.08-4.83 1.92-5.4 4.95v30.7a5.51 5.51 0 0 0 5.5 5.51h.11a5.51 5.51 0 0 0 5.54-5.53v-29.78c-.38-3.73-2.57-5.96-5.75-5.85z"/><path d="m304.23 339.8c0-10.77 0-21.54-.12-32.3a63.83 63.83 0 0 0 -1.9-15.54c-5.9-22.06-20.41-35.68-42.21-41.96-6.94-2-14.5-3-20.54-6.61-15.68-9.27-30.68-19.68-45.92-29.67-2.73-1.79-3.18-7.68-.65-9.79 13.31-11.11 21.47-25.08 24-42.3a3.82 3.82 0 0 1 1.88-2.65c8.07-3 11.15-8.94 11.07-17.2-.12-13.37-.07-26.75 0-40.12 0-1.4.21-3.18 1.06-4.11 2.84-3.11 3.61-6.68 3.55-10.71-.09-6.85 0-13.71 0-20.66 1.64-.34 3-.64 4.31-.87 9.95-1.74 19.93-3.33 29.84-5.24 6.14-1.19 9.57-5.89 9.45-12.13-.11-5.79-3.37-9.53-10.25-11.72q-36.65-11.62-73.33-23.28c-13.31-4.25-26.58-8.62-39.86-12.94l-5.51.14c-1.26.51-2.5 1.11-3.8 1.52q-54.69 17.4-109.39 34.77c-10.28 3.27-12.91 12.1-6.31 20.73a3.65 3.65 0 0 1 .94 1.92c.06 9.72.05 19.45.05 29.1-8.91 1.82-12.2 5.68-11.91 14.62.32 9.69-1 19.14-2.81 28.61-1.71 8.94-3.16 17.93-4.62 26.91-1.52 9.44 4 15.79 13.58 15.81 7.87 0 15.75.05 23.62 0 8.23 0 13.57-5.76 12.87-14-.32-4.08-1.32-8.13-1.89-12.19-2.07-14.91-6.3-29.52-5.69-44.81.38-9.38-2.66-12.9-11.67-15v-26.76l27.62 4.73c0 7.59-.24 14.84.13 22.05.14 2.83 1.64 5.59 2.57 8.37.59 1.79 1.8 3.55 1.82 5.34.16 13.75.05 27.49.11 41.24 0 7.91 3.39 12.63 10.46 15.7a5.12 5.12 0 0 1 2.52 3.39c2.58 16.8 10.56 30.46 23.49 41.37 3.2 2.71 2.66 8.72-1.07 10.72-9.64 5.17-19.13 10.61-27.56 17.58a82.91 82.91 0 0 1 -34.59 17.29c-1.93.46-3.85 1-5.75 1.62-20.76 6.6-34.82 20.14-39.82 41.39-2.17 9.2-1.57 19.07-2 28.65-.21 4.76 2.24 7.67 5.82 7.61s5.58-2.8 5.65-7.43c.08-5.75-.09-11.5.18-17.24a45.34 45.34 0 0 1 31.52-41.38c6.27-2.06 12.68-3.7 18.94-5.76a6.88 6.88 0 0 1 6.27.85c25.83 15.43 51.76 30.68 77.5 46.24 4.62 2.8 8.16 2.57 12.66-.15q38.8-23.39 77.89-46.29a7.29 7.29 0 0 1 4.72-.69c6.41 1.63 12.77 3.48 19.08 5.44 17.41 5.41 31.39 21.63 32 38.68.46 13 .49 26.07.44 39.11v38.55a5.79 5.79 0 0 0 5.79 5.79 5.79 5.79 0 0 0 5.79-5.79v-38.55zm-256.4-192.33c.68 3.93 1.22 7.89 2 11.79.53 2.54.06 3.74-2.83 3.69-7.25-.11-14.5 0-21.75 0-1.84 0-3.26-.23-2.82-2.69 2.24-12.76 4.43-25.54 6.68-38.52h14.2q2.28 12.92 4.52 25.73zm-5.42-47.37v9.83h-12.21v-9.83zm39-10.95v-22.8c8-1 16-2.12 24-3.11 11.14-1.37 22.31-2.56 33.44-4 12.4-1.61 24.67-.43 36.95 1.24 3.71.5 7.42 1 11.16 1.23a5.59 5.59 0 0 0 6.27-5c.27-3-1.94-5.6-5.31-6.17-22.82-3.84-45.59-4.38-68.53-.43-14.25 2.45-28.67 4-43.08 5.24-4.94.42-10.07-1.38-15.11-2.21q-10.13-1.74-20.27-3.49a6.88 6.88 0 0 1 -3.51-1.65c2.65-.9 5.29-1.85 8-2.69q52-16.55 104-33a8.88 8.88 0 0 1 5-.14q54.82 17.4 109.65 34.93a4.67 4.67 0 0 1 2.6 1.87l-14.86 2.58c-6.51 1.13-13 2.73-19.54 3.22-5.51.41-11.13-.37-16.68-.82-4.35-.35-7.06 1.27-7.43 4.83s1.88 6 6.14 6.51c1.36.17 2.73.3 4.09.47s2.71.37 4.33.6v22.79zm136.66 11.67v17.68c-2.42 0-4.9.33-7.26-.08-3.24-.55-5.4-2.63-5.52-6.11-.14-3.71 0-7.44 0-11.49zm-119.45 12.8c-.38 3.13-3.09 4.72-6.23 5-2 .17-4 0-6.23 0v-17.87h12.58c0 4.3.39 8.64-.12 12.87zm.12 47.51c-.19-1.49-.45-3-.63-4.45-.57-4.94-3-7.89-7.91-8.51-3.42-.43-4.43-2.1-4.35-5.21.11-4.22 0-8.44 0-13.1 22 1.85 26.09-11.41 24.33-29.12h83.6c0 3 .15 5.8 0 8.63-.87 14 10 21.76 20.53 20.54a36.49 36.49 0 0 1 3.83 0c0 5.23.19 10.29-.16 15.32-.07 1-2 2.4-3.34 2.71-5.94 1.4-7.91 3.39-8.68 9.52-3.18 25.68-19.8 43.74-44.77 48.69-28.66 5.66-58.78-16.04-62.45-45.02zm78 80.47a3.69 3.69 0 0 1 -2.38 2.26 130.73 130.73 0 0 1 -44.69 0 3 3 0 0 1 -2.08-1.68 95.26 95.26 0 0 1 -3.21-30c18.46 8.12 36.73 8.16 55.41 0a95.19 95.19 0 0 1 -3.06 29.42zm-99.8 7.76 36.13-23.62a132.13 132.13 0 0 0 19.47 56.65zm74.92 41.21-20.36-33.93h40.17c-4.49 11.91-12.41 22.15-19.82 33.93zm20.05-8.32c4.18-8.94 9.06-17.7 12.39-27s5.1-19.19 7.6-29l35.38 23.09z"/></svg>