<svg viewBox="0 0 403.15 409.56" xmlns="http://www.w3.org/2000/svg"><path d="m223.18 298.31a18.38 18.38 0 0 1 -36.76.22 18.38 18.38 0 1 1 36.76-.22zm-12.24 0a6.11 6.11 0 0 0 -6.27-5.91 5.85 5.85 0 0 0 -5.78 6.29 6 6 0 0 0 6 5.76 6.21 6.21 0 0 0 6.05-6.11z"/><path d="m82.4 180.64q0-27 0-54c0-6.16 2-8.2 8.08-8.2q54.21 0 108.4 0c5.74 0 8.1 2.22 8.11 7.9q.06 54.41 0 108.8c0 5.44-2.43 7.89-7.81 7.9q-54.6.08-109.2 0c-5.4 0-7.57-2.44-7.58-8q-.02-27.2 0-54.4zm12.43 5.1c1.19-.34 1.93-.54 2.66-.76 11.07-3.34 21.59-2.46 31.21 4.34 5.86 4.16 11.38 8.8 17.36 12.77 7 4.67 14.49 5.09 21.71.28 8-5.36 16.2-10.2 26.45-8.3v-63.07h-99.39zm-.19 44.54h99.86c0-7.32.1-14.37-.12-21.4 0-.87-1.58-2.24-2.61-2.45-6.06-1.22-10.67 2-15.4 5.17-12.27 8.15-24.85 8.89-37.33.53-6-4-11.51-8.63-17.4-12.74-7.91-5.52-16.24-5.07-24.55-.91a4.58 4.58 0 0 0 -2.34 3.14c-.19 9.44-.11 18.88-.11 28.66z"/><path d="m108.65 72.1c-6.4 0-12.79.09-19.19 0s-8.83-4.53-5.72-10q9.33-16.5 18.94-32.84c3.25-5.53 8.54-5.43 11.81.15q9.51 16.14 18.79 32.42c3.22 5.65.6 10.16-5.85 10.25-6.26.09-12.52.02-18.78.02zm-.12-28.46c-3.28 5.71-6.17 10.76-9.19 16h18.46z"/><path d="m217.16 32.75h51.16c4.77 0 7.43 2.6 7 6.64-.35 3.2-2.19 5.13-5.42 5.35-2.78.2-5.59.12-8.39.12h-92.73a40.09 40.09 0 0 1 -4.39-.11c-3.4-.36-5.74-2.92-5.48-6.16s2.05-5.51 5.5-5.75c2.92-.21 5.86-.11 8.79-.11z"/><path d="m271.94 189.5c-13.58 0-27.16 0-40.74 0a18.14 18.14 0 0 1 -5.09-.65c-2.75-.85-4.42-3.12-3.73-5.78a10.65 10.65 0 0 1 3.92-5.32c1.19-.89 3.31-.72 5-.72q40.95-.06 81.88 0h2.39c4.33.36 6.83 2.7 6.8 6.31s-2.58 6-6.91 6.15c-4.12.14-8.25 0-12.38 0z"/><path d="m272 135.91c-13.71 0-27.43 0-41.14 0-1.57 0-3.63.2-4.61-.66-1.71-1.5-3.44-3.61-3.9-5.73-.56-2.67 1.27-4.84 4.1-5.5a22 22 0 0 1 5.12-.55q40.74 0 81.48 0a25.93 25.93 0 0 1 2.79 0c4.3.45 6.68 2.89 6.49 6.56-.17 3.45-2.67 5.68-6.8 5.84-3.33.12-6.66 0-10 0z"/><path d="m272.57 150.4h43.12c3.19 0 5.51 1.32 6.45 4.3a5.48 5.48 0 0 1 -2.63 6.86 8 8 0 0 1 -3.77.94q-43.53.08-87.05 0c-4.09 0-6.49-2.45-6.5-6s2.58-6 6.86-6.06c14.51-.07 29.01-.04 43.52-.04z"/><path d="m272.35 216.1c-14.37 0-28.75 0-43.12 0-4.47 0-7-2.21-7-5.89 0-3.38 1.76-5.47 5.09-6.11a15.26 15.26 0 0 1 2.79-.1q42.14 0 84.26 0a11.17 11.17 0 0 1 4.31.47 6 6 0 0 1 -2.39 11.59c-8.79 0-17.57 0-26.36.06z"/><path d="m188.27 71c-7.2 0-14.4 0-21.6 0-3.07 0-5.93-.67-7.29-3.84-1.9-4.42 1.22-8.52 6.74-8.61 8-.14 16 0 24 0 6.53 0 13.06-.05 19.59 0 4.93 0 7.75 2.34 7.8 6.16s-2.76 6.25-7.65 6.31c-7.2.07-14.4-.02-21.59-.02z"/><path d="m248.77 243.06c-6.52 0-13 .11-19.55 0-4.74-.11-7.35-2.8-6.95-6.83s3.15-5.53 6.6-5.56q19.95-.21 39.89 0c4.3 0 6.73 2.72 6.61 6.41-.11 3.48-2.53 5.86-6.66 6-6.64.1-13.3-.03-19.94-.02z"/><path d="m179.25 163a18.59 18.59 0 1 1 -37.17-.23 18.59 18.59 0 1 1 37.17.23zm-18.39 6.05a6.19 6.19 0 1 0 -6.49-6.12 6.29 6.29 0 0 0 6.49 6.12z"/><path d="m403.07 81.08a23 23 0 0 0 -22.07-21.24c-4-.1-6.68 2-6.95 5.56s2.1 6 6.07 6.56c7.37 1.05 10.74 4.73 10.75 12.36q.08 84 .09 168c0 2.94-1.11 3.55-3.75 3.51-9.86-.11-19.73 0-29.6 0h-10.89v-183.83h8.54c4.56-.07 7.42-2.39 7.48-6s-2.61-6.07-7.27-6.26c-2.88-.11-5.78 0-9 0 0-13.1 0-25.61 0-38.13a36 36 0 0 0 -.65-7.91c-1.74-7.45-7.18-11.24-13.82-13.7h-262.42c-6.68 2.43-12.09 6.26-13.85 13.6a34.84 34.84 0 0 0 -.66 7.92c-.07 12.48-.07 25.02-.07 37.91a44.47 44.47 0 0 1 -6.57.12 103.62 103.62 0 0 0 -17.08 0c-4.36.31-9.48-.17-14 1-10.93 2.84-17.35 11.73-17.35 23.8q0 116 0 232c0 1.2 0 2.4.08 3.6.85 11 9.76 20.34 20.7 20.77 12.78.5 25.59.34 38.38.34 4.85 0 7.32-2.19 7.37-6s-2.64-6.19-7.57-6.21c-11.06 0-22.13 0-33.2 0-9.62 0-13.51-3.89-13.53-13.61q0-21.6 0-43.2v-3.73h378.69v4.25q0 21.19 0 42.4c0 10.18-3.79 13.89-14.05 13.89h-283.6a40.3 40.3 0 0 0 -4.4.07c-3.41.38-5.77 2.91-5.63 6.12.16 3.38 2 5.43 5.38 5.86a33.88 33.88 0 0 0 4.39.21h54.8c1.85 0 3.81-.37 3.78 2.63-.1 9.06 0 18.13-.15 27.19a3.78 3.78 0 0 1 -2.48 2.6c-15.62 2.47-25.65 13.05-26.85 28.56-.36 4.64 2 7.48 6.62 7.48h.83a6.59 6.59 0 0 0 6.58-6.58v-5.8c1.37-6.58 8.31-11.56 16.26-11.6 16.66-.07 33.31 0 50 0h48a17.9 17.9 0 0 1 15.11 7.51 33.53 33.53 0 0 1 2.23 4.11v5.79a6.59 6.59 0 0 0 6.59 6.58h.06c4.67 0 7.07-2.78 6.73-7.39-1.13-15.47-11.35-26.43-26.8-28.49-2.44-.32-2.69-1.54-2.68-3.47 0-8.8 0-17.6 0-26.4a20.57 20.57 0 0 1 .43-2.71h5.21q59.6 0 119.2 0a38.55 38.55 0 0 0 9.12-.76c11-2.69 17.56-11.75 17.57-24q0-115.8 0-231.6c-.02-1.28-.01-2.48-.1-3.68zm-348.23 174.42h-42.39c-.07-1.48-.21-2.89-.21-4.3q0-82.6 0-165.2c0-10.29 3.72-14 13.9-14h28.7zm279.51-166.63h-5.18q-99.37 0-198.76 0a19.61 19.61 0 0 0 -5.15.41 5.56 5.56 0 0 0 -4.4 5.91 5.49 5.49 0 0 0 4.69 5.64 28.55 28.55 0 0 0 5.55.45q98.78 0 197.57 0h5.45v154.28h-266.67v-154.25h22.06c1.6 0 3.21.08 4.8 0 4.25-.31 7-2.77 7-6.18 0-3.61-2.88-6.16-7.37-6.2-7.33-.08-14.66 0-22 0-1.44 0-2.88 0-4.57 0-.09-1.46-.23-2.62-.23-3.77q0-32 0-64c0-6.81 2-8.92 8.77-8.92q124.77 0 249.56 0c6.74 0 8.82 2.12 8.82 8.87.07 22.33.06 44.71.06 67.76zm-95.35 284.13h-74.86v-31.61h74.86z"/></svg>