<svg viewBox="0 0 360.66 361.57" xmlns="http://www.w3.org/2000/svg"><path d="m336.65 240.31v5.7a17.8 17.8 0 0 1 -18.13 18c-8.62 0-17.24 0-25.87 0h-4c0 5.34-.13 10.31.09 15.26.06 1.36 1.06 2.74 1.82 4q21.46 34.95 43 69.86a4.41 4.41 0 0 1 -1.43 6.05l-2.83 1.76a4.4 4.4 0 0 1 -6.07-1.42l-.07-.12q-21.09-34.28-42.22-68.55a19.82 19.82 0 0 0 -3.08-3.21l-1.17.49c0 7-.07 13.9.08 20.85 0 1.11 1 2.24 1.64 3.29 8.06 13.13 16.14 26.26 24.34 39.58a5.92 5.92 0 0 1 -1.91 8.13l-.19.13a6 6 0 0 1 -8.21-1.93c-5.05-8.18-10.07-16.29-15.09-24.41l-.64.19v19.91a5.92 5.92 0 0 1 -5.92 5.92 5.92 5.92 0 0 1 -5.92-5.92v-65.6h-12.07v65.53a5.92 5.92 0 0 1 -5.92 5.92h-.11a5.92 5.92 0 0 1 -5.92-5.92v-19.8l-.8-.23c-1.46 2.29-2.93 4.57-4.37 6.88s-2.82 4.71-4.32 7-3.3 4.76-3.27 7.65a4.42 4.42 0 0 1 -3.72 4.45l-3.22.5a4.4 4.4 0 0 1 -5-3.73c-1.18-8.44-2.34-16.75-3.56-25.41-5 .93-9.7 1.78-14.42 2.72-10.87 2.17-21.72 4.48-32.62 6.5-2.47.46-3 1.51-2.9 3.72.08 3.23.07 6.47.06 9.77a5.88 5.88 0 0 1 -5.87 5.85 5.87 5.87 0 0 1 -5.87-5.87v-71.7a5.83 5.83 0 0 1 5.83-5.83 5.83 5.83 0 0 1 5.83 5.83v46.5c9.68-1.91 18.93-3.71 28.17-5.55 5.75-1.14 11.47-2.44 17.24-3.45 2.2-.38 3-1.19 2.69-3.43-2.45-17-4.17-34.21-7.42-51.09-4.16-21.55-17.74-35.35-38.69-41.46-15.86-4.63-31.91-8.6-47.89-12.78a29.28 29.28 0 0 0 -6-.83c-8.38-.07-16.76.26-25.12-.1a100.3 100.3 0 0 0 -34.28 4.41c-10.69 3.26-21.53 5.68-32.2 8.68-3.67 1-7.26 2.36-11.08 3.75a5.94 5.94 0 0 1 -7.17-2.58l-.06-.11a6 6 0 0 1 2.92-8.54c18.46-7.41 38.13-10.2 56.94-16.5 0-6.74.07-13.61-.08-20.47a5 5 0 0 0 -1.7-3 68 68 0 0 1 -20.8-35.25 4 4 0 0 0 -3-2.19c-3.6-.27-7.24-.07-10.86-.11a17.59 17.59 0 0 1 -17.54-17.7c-.06-8.12 0-16.25 0-24.37 0-4.46 1.59-8.2 4.17-11.75a9.41 9.41 0 0 0 1.77-5c.26-10.18-.51-20.4 2.24-30.48 7.77-28.45 33.81-48.7 63.27-48.65 11.61 0 23.3-.37 34.8.88 27.25 3 51.65 27.62 54.84 54.82.9 7.6.51 15.34.93 23a10.63 10.63 0 0 0 1.86 5.51 19.53 19.53 0 0 1 4.09 11.74c-.07 8 0 16 0 24-.07 10.29-7.72 17.87-18.06 18-3.5 0-7-.17-10.49.12a4 4 0 0 0 -2.88 2.28 68.57 68.57 0 0 1 -20.84 35.23 5.39 5.39 0 0 0 -1.65 3.44c-.15 6.62-.07 13.24-.07 20.05l59.86 16.53c0-.39.15-1.55.15-2.72 0-12.74 0-25.49 0-38.24 0-11 7.59-18.61 18.56-18.65 7.12 0 14.25-.08 21.37 0 2.26 0 3.36-.49 3.69-3 .52-3.95 1.44-7.84 2.26-11.75a19 19 0 0 1 11.72-14.29 4.19 4.19 0 0 0 2.29-3c.29-3.09.1-6.23.1-9.93h-46.07c-7.31 0-8.53-2.67-7.7-12a381.13 381.13 0 0 0 0-71.81c-.91-9.39.36-12.26 7.36-12.26q64.3 0 128.62 0c5.92 0 7.76 1.86 7.76 7.85v34.15h21.87c6.42 0 8.12 1.73 8.12 8.24q0 81.75 0 163.49c0 6.49-1.71 8.23-8.14 8.24h-14.62a8.85 8.85 0 0 0 -1.23.34zm-204.65-140.22h.63c0-8.87.14-17.74 0-26.6-.34-17.86-11.72-32.42-28.92-36.27-5.75-1.28-11.9-1.28-17.85-1.15-20.86.42-36.86 16.4-37.14 37.27-.25 17.86-.32 35.73 0 53.58.31 15.59 6.48 28.8 18.09 39.3a7.11 7.11 0 0 0 4.26 1.71q19.49.19 39 0a6.54 6.54 0 0 0 4-1.4c10.11-8.93 16.72-20 17.78-33.53.87-10.9.15-21.93.15-32.91zm66.89-69.95v71.56h119.59v-71.56zm67.3 221.86h50.24c6.22 0 8.25-2.07 8.25-8.37q0-33.74 0-67.48c0-6-2.13-8.1-8.15-8.12-8.87 0-17.75 0-26.62-.06-4.63 0-6.33-1.3-7.3-5.75-1.29-6-2.45-12-3.66-17.95-.91-4.5-2.88-6.25-7.41-6.28q-12.75-.08-25.5 0c-4.8 0-6.72 1.7-7.67 6.4-1.2 6-2.38 12-3.67 18-.92 4.24-2.69 5.61-7 5.63-8.87 0-17.75 0-26.62 0-6.34 0-8.38 2-8.39 8.21 0 15.13-.07 30.25.09 45.37a7.81 7.81 0 0 0 2.2 5 65.35 65.35 0 0 1 16 22.39c1.07 2.58 2.5 3.1 5 3.08 16.72-.07 33.46-.07 50.21-.07zm64.47-179.86v34.16c0 5.74-1.91 7.67-7.58 7.67q-21.18 0-42.36 0h-4c0 3.84-.14 7.1.09 10.33a3.54 3.54 0 0 0 1.86 2.51c7 2.81 11 7.94 12.28 15.3.68 3.8 1.4 7.6 2.32 11.35.24.95 1.31 2.39 2 2.41 5.71.2 11.42.11 17.24.11.15-2.17.28-4 .4-5.68h12c-1.44 4.76.74 7.11 4.43 9.44 5 3.18 7.31 8.36 7.31 14.4q0 23.81 0 47.61v6h11.76v-155.61zm-173.66 5.7c-.34-6.67-.36-12.92-1-19.1-2.46-23.3-22.63-43.75-45.9-46-10.28-1-20.69-.79-31-.75-31.61.16-59.16 26.21-54 65.76h11.58v-4.33a49.44 49.44 0 0 1 32.32-46.42c8.53-3.27 17.36-3 26.22-3 23 .07 42.61 15.28 48 37.64 1.26 5.24 1.42 10.75 2.09 16.2zm-48.48 102.4h-35.52v17.57h35.55zm-71.97-90.24c-4.21 0-8.06-.14-11.9 0-3.59.16-5.87 2.37-5.93 6-.15 8-.12 16 0 23.94 0 3.27 1.92 5.61 5.16 5.89 4.16.35 8.37.08 12.68.08zm108.23 36c4.23 0 8.08.14 11.92 0 3.57-.16 5.85-2.4 5.92-6 .15-8 .13-16 0-23.94 0-3.25-1.93-5.6-5.18-5.87-4.16-.35-8.37-.09-12.67-.09zm131.72 138.23h-35.56v11.59h35.56zm-35.82 24.15-.92-.8c-.93.74-2.15 1.3-2.75 2.24-4.58 7.27-9.06 14.6-13.51 21.95a4.83 4.83 0 0 0 -.82 2.76c.74 6.22 1.62 12.43 2.51 19 .68-.52 1-.68 1.21-.95 4.52-7.3 9-14.61 13.5-21.95a5 5 0 0 0 .75-2.43c.06-6.62.03-13.2.03-19.82zm-20.92 5.23c8.09-8.59 10.83-18.34 8.39-29.34h-12.42zm33.24-179.55v11.69h11.4v-11.69z"/><path d="m24.52 359.88a5.87 5.87 0 0 1 -5.87-5.83c0-3.24 0-6.48.09-9.71.11-2.67-.7-3.67-3.41-4.07-3.34-.5-6.65-1.21-10.09-2a6 6 0 0 1 -4.62-7v-.12a6 6 0 0 1 7-4.78l11 2.08v-46.45a5.82 5.82 0 0 1 5.82-5.83 5.83 5.83 0 0 1 5.95 5.83v72a5.87 5.87 0 0 1 -5.87 5.88z"/><path d="m304.21 86.3-7.49 7.41-47.79-47.71 7.86-7.08c15.49 15.46 31.42 31.38 47.42 47.38z"/><path d="m310.3 62-7.53 7.79-23.77-23.79 7.52-7.8z"/><path d="m246.85 180h34.5c5.24 0 7.29 2 7.3 7.19q0 22.88 0 45.75c0 4.93-2.12 7-7.11 7q-34.87 0-69.75 0c-5 0-7.09-2.08-7.1-7q0-23.07 0-46.12c0-4.72 2.14-6.81 6.9-6.82zm-29.93 12.13v35.57h59.56v-35.56z"/><path d="m270.48 150.27v11.51h-23.48v-11.51z"/><path d="m312.48 180.22v11.48h-11.55v-11.48z"/><path d="m312.49 204.28v11.49h-11.49v-11.49z"/><path d="m312.45 239.81h-11.45v-11.57h11.5z"/></svg>