<svg viewBox="0 0 384 367.28" xmlns="http://www.w3.org/2000/svg"><path d="m0 270.64a29.88 29.88 0 0 0 .52-3.26c1.36-25.69 2.13-51.38 4.17-77.06 2.85-35.84 7.8-71.42 19.4-105.69 5-14.72 11.35-28.78 21.53-40.8 10.45-12.35 23.53-19.41 39.9-20a5.57 5.57 0 0 0 3.39-1.73c15.92-16.56 40.39-16.72 56.38-.42a8.32 8.32 0 0 0 4.74 2c7.05.79 14.24.73 21.18 2 11.46 2.16 20.16 8.9 26.75 18.42 1.33 1.92 2.63 3.86 4.3 6.32.24-4.12.06-7.72.73-11.16 2.82-14.49 12.32-23.85 24.58-30.88 23.89-13.7 55.34-10.54 75.82 7.64 9.54 8.46 14.92 18.85 14.46 31.94-.22 6.24-.11 12.5 0 18.74 0 1.12.71 2.87 1.55 3.23 9.32 3.94 11.37 11.75 10.75 20.62s-4.32 16.3-12.49 20.93a4.85 4.85 0 0 0 -1.87 2.94c-3.34 15.13-10.18 28.32-21.28 39.23-2.39 2.36-1.87 4.59.5 6.68 7.85 6.95 17.09 11 27.2 13.49 11.86 2.85 23.67 6 35.57 8.68 8.28 1.86 13.23 6.8 14.8 14.9 2.7 13.94 5.74 27.86 7.41 41.93 1.84 15.48 2.3 31.12 3.38 46.69a30.77 30.77 0 0 0 .6 3.27v33c-7.45 18.6-22.3 30.88-37 43.26-2.91 2.45-6.18 2-8.3-.56s-1.48-5.72 1.22-8.28c8-7.55 16-15.07 23.81-22.77a25.26 25.26 0 0 0 5.51-7.52c1.64-3.77 3.34-7.94 3.35-11.95 0-26.74-.95-53.48-4.47-80-1.53-11.59-4.34-23-6.52-34.51-.69-3.62-2.82-5.48-6.39-6.33-12.8-3.09-25.55-6.34-38.93-9.68 1.47 6.52 2.6 12.47 4.17 18.29 3.39 12.65.61 23.83-7.07 34.23-9.7 13.16-21.26 24.53-33.38 35.38-4.66 4.16-9.46 8.16-14.25 12.17-4.21 3.51-7.29 3.68-9.79.7s-1.62-6.09 2.51-9.48c13.96-11.34 27.44-23.24 39.12-37.04 3.3-3.9 6.13-8.2 9.13-12.33 5.54-7.62 3.94-15.9 2-24.12-1.41-6.06-3.37-12-4.68-18.08a8.73 8.73 0 0 0 -5.52-6.83 44.6 44.6 0 0 1 -5-3c-.63 7.42-.94 14.6-1.9 21.69-3.13 23.16-11 44.5-25.5 63.07-4.28 5.47-7.71 5.54-12 .08-13.09-16.58-20.85-35.68-24.44-56.36-1.6-9.27-2.11-18.73-3.13-28.32-2 1.15-4 2.41-6.17 3.62-10.15 5.75-21.52 7.71-32.65 10.44-2.66.65-5.34 1.25-8 1.79-3.43.69-6.31-.92-7.07-3.86-.85-3.25.77-6.14 4.39-7.07 7.85-2 15.76-3.77 23.61-5.74a57.94 57.94 0 0 0 24.11-12.31c3.49-3 3.53-4.43.39-7.6a76.31 76.31 0 0 1 -20.37-37.27 8.44 8.44 0 0 0 -3.88-5.81c-9.63-6.23-13.94-20.91-9.09-31.27 1.57-3.34 4.57-6 7.49-9.69-6.74-12.73-12.41-28.06-29.88-32-7.69-1.75-15.83-1.6-23.78-2a8.39 8.39 0 0 1 -7-3.47c-11.07-14.41-31.74-14.29-43 0-1.34 1.7-4.05 3.35-6.1 3.31-18.07-.29-30.84 8.42-40.39 22.94-10.39 15.8-16.05 33.61-20.58 51.81-5.7 22.92-9 46.25-11.43 69.73-4.47 43.18-5.56 86.51-5.84 129.87 0 3.22-.37 6.12-3.8 7.35s-5.66-.77-7.48-3.38zm223.74-245.44c-6 5.76-9.87 12-9.94 20.1-.08 9.24 0 18.49 0 27.73 0 5.4-1.05 6.42-6.29 7.32-1.72.3-3.86 1-4.84 2.23-3.62 4.61-.22 17.12 5.41 18.5s6.35 5 7.2 9.46c2.74 14.52 9.1 27.18 20.47 36.9 8.07 6.9 17.29 10.86 28.21 9.45 12.76-1.66 21.95-9 29.33-18.93a65.13 65.13 0 0 0 12.06-29.48c.55-3.63 1.86-6.21 6-7.07 1.82-.39 4.13-2 4.76-3.66a44.08 44.08 0 0 0 2.66-11.41c.38-3.67-1.9-5.62-5.62-6.07-5.5-.66-6.81-2.2-6.84-7.7 0-8.5-.24-17 .06-25.49.29-8.21-2.86-14.79-8.4-20.48-14.93-15.33-42-19.82-61.14-10.09a3.84 3.84 0 0 0 -2 2.28c-1.5 10 5.23 20.45 15.14 22.3 6.29 1.18 12.87 1.14 19.32 1.12 6.86 0 13.71-.78 20.57-1a5.27 5.27 0 0 1 5.68 5.21c.17 3.15-1.78 5.74-4.95 5.9-11.34.58-22.71 1.54-34.05 1.35-16-.28-27-8.5-31.22-22.18-.58-1.86-.96-3.78-1.58-6.29zm33.5 143.57c-.25 1.67-.55 3.25-.7 4.84-1.49 16.52-3 33-4.41 49.57-.3 3.44-1.28 7.26-.2 10.28 1.78 4.94 5 9.37 8 14.74 2.25-3.67 3.92-6.71 5.89-9.54 2.75-3.94 3.09-8.17 2.54-12.8-.88-7.43-1.4-14.9-2.08-22.35-1-11.53-2.1-23.06-3.16-34.74zm20.54 35.36c3.91-13.38 4.11-26.9 3.81-40.85-2.12.92-3.79 1.31-5 2.27-.95.72-2 2.2-1.93 3.26.89 11.78 2.03 23.55 3.12 35.32zm-39.12-40.6c-1 13.82.7 33.89 3.67 41.61 1-11.29 2.09-21.91 2.92-32.55.51-6.59.35-6.59-6.59-9.06z"/><path d="m174.75 100.21c8.48 2.64 12.19 8.71 12.64 16.93.54 10-2.57 18.53-11.19 24.26a7.24 7.24 0 0 0 -3.54 4.75c-3.6 15.35-11.23 28.16-23.94 37.77-3.19 2.41-1.83 9.83 2.25 11.58 3.65 1.57 7.51 2.65 11.27 3.95 9.81 3.37 19.54 6.9 27.86 13.37 11.24 8.75 16.91 20.77 18.18 34.47 2.34 25.11.33 50.13-3.55 75a24.51 24.51 0 0 1 -8.38 15.41c-13.73 11.84-29.48 20.49-45.42 28.83-3.53 1.85-7-.12-8.06-4-2.13-8-4.64-10.12-13.11-10.87a33 33 0 0 0 -7.49-.13c-5 .72-8.78-1-12.67-4-12.24-9.53-24.74-18.65-37.13-27.94-10.33-7.75-13.62-19.45-8.75-30.44a24.61 24.61 0 0 1 29-13.53 6 6 0 0 0 1.18.07c4.49-10.31 12-16.54 23.58-16.45 11.39.08 18.8 6.26 23.24 16.62 8.66-2.49 16.55-.94 24.56 5.32 1-9.08 3-17.41 2.67-25.65-.56-12.8-14.66-24.45-29.58-17.27a136.79 136.79 0 0 0 -15.46 9c-5.07 3.32-6.19 3.34-11.35-.06a127.24 127.24 0 0 0 -14.76-8.78c-15.9-7.69-29.65 4.58-30.76 19-.06.75 0 1.51-.09 2.25a5.58 5.58 0 0 1 -5.91 5c-3.12-.14-5.2-2.27-5.28-5.62-.5-21.38 20.09-41.05 43.59-32.27 5.9 2.2 11.3 5.76 16.8 8.93a3.57 3.57 0 0 0 4.3 0c5.26-3.07 10.45-6.47 16.09-8.64 19.6-7.56 40.1 4.6 43.81 25.28 1.41 7.82-.85 15.11-1.95 22.58-1.34 9.13-3.22 18.17-4.64 27.29a24.93 24.93 0 0 1 -10.1 16.86q-12.62 9.4-25.19 18.86c-1 .73-1.89 1.5-3.33 2.64 7.9 1.86 14.47 4.8 18.34 12.42 6.51-3.87 12.9-7.41 19-11.38 5.65-3.66 11-7.75 16.49-11.68a13.93 13.93 0 0 0 5.62-9.76c3.56-23.53 5.58-47.18 3.55-70.93-1.18-13.94-7.42-25.49-20.66-31.72-7.64-3.6-15.75-6.19-23.62-9.29a88.3 88.3 0 0 1 -9.27-3.94c-5.11-2.73-6.64-7.8-7.5-12.62-6.52.83-12.76 2.25-19 2.25s-12.28-1.43-18.74-2.27c-.53 9.65-7.63 13.57-16.16 16.55-8.8 3.07-17.39 6.76-26 10.3-3.49 1.44-6.46.78-8.07-2.15a5.33 5.33 0 0 1 2.71-7.83c8.5-3.66 17.17-7.03 25.87-10.53 1.61-.65 3.32-1 5-1.66a8.69 8.69 0 0 0 5.72-10.34 3.28 3.28 0 0 0 -1.24-1.73c-10.66-7.75-17.66-18.17-22.24-30.37a4.64 4.64 0 0 0 -.55-.86c-7.32 4.48-7.68 8.63-1 13.75 4.57 3.49 7.86 7.6 8.57 13.47.48 4-1.51 7.1-4.9 7.64-3.16.5-6-1.77-6.39-5.79s-3.23-5.42-5.7-7.41c-7.09-5.74-9.57-13.62-6.12-21.27 1.19-2.63 3.32-4.91 5.31-7.09a47.59 47.59 0 0 1 5.36-4.45c-1.31-1.25-2.52-2.28-3.59-3.43-7.23-7.75-9.49-16.82-6.8-27a14 14 0 0 1 8.46-9.9c2.44-1 3-2.29 3.12-4.7a57.5 57.5 0 0 1 42.72-53.95c36.18-9.64 71.54 17.17 72.31 54.7.03.72.01 1.47.01 2.6zm-.58 28.12c.74-3.3 1.77-6.15 2-9 .35-5.75-1.37-7.53-7.08-8.3-3.73-.51-5.36-2.38-5.52-6.23-.17-4.24-.08-8.51-.65-12.69-2.92-21.56-21.16-38.46-42.52-39.72-22.15-1.29-42.25 12.92-47.63 34.25-1.4 5.6-1.24 11.6-1.63 17.43-.22 3.44-1.15 6.68-5 6.72-6.83.07-8.44 3.37-7.55 10.39.59 4.72 2.25 9.61 7.56 11.06 3.82 1 5.27 3.21 5.79 6.77a57.22 57.22 0 0 0 8.93 23.58c11.59 17.48 32.09 24.91 50.62 17.78 17.69-6.81 26.81-20.85 30.53-38.77 2.6-12.49-1.52-20.86-13.06-26.25-6.75-3.15-13.88-5.53-20.87-8.17-9-3.4-18-6.87-25.53-13-6.07-4.93-9.92-11.11-10.76-19-.47-4.44 1.33-7.46 4.89-7.9 3.73-.46 6.17 1.71 6.55 6.4a14.23 14.23 0 0 0 5.54 10.63 64.6 64.6 0 0 0 12.65 7.82c8.32 3.64 16.94 6.59 25.44 9.82 12.39 4.71 22.75 11.5 26.29 25.38.07.14.32.28 1.01 1zm-57.12 184.09v-.11c10.62 0 21.24.22 31.85-.09a12.68 12.68 0 0 0 12.18-9.39 13.29 13.29 0 0 0 -5-14.29c-4.65-3.3-10.55-3.2-15.71.41-2.17 1.52-4.62 2.91-6.8 1a9.44 9.44 0 0 1 -3-5.83c-.64-8.08-5.94-13.64-13.54-13.56-7.41.08-12.39 5.56-13 13.6-.15 2-1.51 4.83-3.14 5.66s-4.27-.36-6.46-.72c-.33-.05-.61-.41-.93-.61-8.35-5.44-18.63-1-20.41 8.76-1.49 8.16 4.87 15 14.34 15.13 9.88.15 19.75.04 29.62.04zm-19.67 11.58 19.89 14.91 19.82-14.91z"/><path d="m24.68 268.41c.74-11.66.28-23.33 4.67-34.43a38.54 38.54 0 0 1 2.09-4.79 5.25 5.25 0 0 1 7.07-2.43c2.88 1.18 4.4 3.84 3.18 6.74-8.25 19.57-4.64 39.89-3.78 60 .38 9.07 2.11 18.07 3.1 27.12a13.72 13.72 0 0 0 6.62 10.38c12.06 7.76 24.21 15.37 36.35 23 1.37.86 2.87 1.51 4.27 2.33 3.19 1.89 4.29 5.06 2.8 7.9a5.62 5.62 0 0 1 -8.05 2.07c-11.13-6.41-22.24-12.87-33.17-19.62-4.12-2.54-7.7-5.93-11.56-8.9-7.38-5.67-8.77-14-9.61-22.36-1.57-15.65-2.66-31.34-3.98-47.01z"/><path d="m266.42 306.65a6.13 6.13 0 0 1 -6.59 6.07 6.43 6.43 0 0 1 -6.2-6.57 6.68 6.68 0 0 1 6.71-6.17 6.37 6.37 0 0 1 6.08 6.67z"/><path d="m266.42 336.48a6.13 6.13 0 0 1 -6.42 6.25 6.45 6.45 0 0 1 -6.38-6.41 6.69 6.69 0 0 1 6.55-6.34 6.34 6.34 0 0 1 6.25 6.5z"/><path d="m260 143.76a29 29 0 0 1 -20.83-9.52c-2.58-2.8-2.56-6-.13-8.31 2.24-2.15 5.4-2.07 8.08.21 9.93 8.44 16.07 8.4 26.23-.14 2.64-2.22 5.85-2.18 8 .11a5.76 5.76 0 0 1 0 7.79c-4.65 5.78-13.62 9.91-21.35 9.86z"/><path d="m238.41 103.6c-4.25-2.15-8.29-3.71-11.76-6.1-2.84-1.94-2.8-5.53-.73-7.94a5.49 5.49 0 0 1 7.73-.72c3.26 2.52 6.15 2.63 9.45.06a5.49 5.49 0 0 1 8 .87 5.42 5.42 0 0 1 -1.11 8c-3.44 2.23-7.36 3.73-11.58 5.83z"/><path d="m279.64 102.53c-2.12-1.07-6.17-2.63-9.63-5-2.89-2-2.85-5.48-.76-7.92a5.43 5.43 0 0 1 7.72-.75c3.42 2.67 6.4 2.51 9.76-.13a5.26 5.26 0 0 1 7.65 1.08 5.37 5.37 0 0 1 -.48 7.47c-3.27 3.43-7.45 4.83-14.26 5.25z"/><path d="m117 173.74a24.14 24.14 0 0 1 -17.29-8c-2.36-2.58-2.36-5.83-.19-8.07s5.29-2.35 8-.11c7.76 6.32 11.82 6.33 19.32 0 2.71-2.27 5.76-2.26 8 0s2.17 5.4-.12 8.07a24.86 24.86 0 0 1 -17.72 8.11z"/><path d="m95.74 139.33c-4.21-2-8.17-3.4-11.57-5.65a5.32 5.32 0 0 1 -1.17-8.17c2-2.39 5.16-2.79 8-.62 3.17 2.42 6 2.36 9.13-.06a5.5 5.5 0 0 1 8 .75c2 2.47 2 5.94-1 7.91-3.29 2.29-7.21 3.77-11.39 5.84z"/><path d="m139 138.1a16.18 16.18 0 0 1 -12.11-4.94 5.59 5.59 0 0 1 -.37-7.76c2.18-2.3 4.95-2.76 7.4-.85 3.53 2.75 6.53 2.76 10.07 0 2.42-1.88 5.22-1.51 7.41.85s2 5.28-.26 7.76c-2.67 2.92-7.62 4.93-12.14 4.94z"/></svg>